<svg xmlns="http://www.w3.org/2000/svg" xmlns:xlink="http://www.w3.org/1999/xlink" width="1080" zoomAndPan="magnify" viewBox="0 0 810 809.999993" height="1080" preserveAspectRatio="xMidYMid meet" version="1.0"><defs><g/></defs><g fill="#000000" fill-opacity="1"><g transform="translate(402.293135, 587.722289)"><g><path d="M -17.515625 33.625 L -16.015625 20.953125 L -36.15625 18.5625 L -35.375 12 L -15.234375 14.390625 L -13.34375 -1.578125 L -5.59375 -0.65625 L -10.53125 41.046875 L -40.984375 37.4375 L -40.21875 30.9375 Z M -17.515625 33.625 "/></g></g></g><g fill="#000000" fill-opacity="1"><g transform="translate(368.037712, 584.168128)"><g><path d="M -44.046875 19.421875 L -34.1875 -11.0625 L -27.390625 -8.859375 L -28.640625 -4.984375 C -27.066406 -5.984375 -25.300781 -6.578125 -23.34375 -6.765625 C -21.394531 -6.953125 -19.4375 -6.726562 -17.46875 -6.09375 C -13.382812 -4.78125 -10.535156 -2.613281 -8.921875 0.40625 C -7.316406 3.4375 -7.238281 7.175781 -8.6875 11.625 L -14.3125 29.046875 L -21.453125 26.734375 L -16.140625 10.296875 C -15.253906 7.554688 -15.207031 5.3125 -16 3.5625 C -16.800781 1.8125 -18.347656 0.566406 -20.640625 -0.171875 C -23.179688 -0.992188 -25.457031 -0.863281 -27.46875 0.21875 C -29.488281 1.3125 -30.976562 3.347656 -31.9375 6.328125 L -36.921875 21.734375 Z M -44.046875 19.421875 "/></g></g></g><g fill="#000000" fill-opacity="1"><g transform="translate(332.125004, 571.878403)"><g><path d="M -24.046875 37.78125 L -30.78125 34.484375 L -11.15625 -5.46875 L -4.421875 -2.171875 Z M -24.046875 37.78125 "/></g></g></g><g fill="#000000" fill-opacity="1"><g transform="translate(318.071539, 565.058841)"><g><path d="M -27.1875 35.59375 L -33.609375 31.734375 L -10.640625 -6.40625 L -4.21875 -2.546875 Z M -27.1875 35.59375 "/></g></g></g><g fill="#000000" fill-opacity="1"><g transform="translate(304.65204, 557.063575)"><g><path d="M -30.125 33.140625 L -36.203125 28.734375 L -10.0625 -7.296875 L -3.984375 -2.890625 Z M -30.125 33.140625 "/></g></g></g><g fill="#000000" fill-opacity="1"><g transform="translate(292.091062, 548.250675)"><g><path d="M -15.625 12.59375 L -27.9375 1.625 L -23.796875 -3.03125 L -11.484375 7.9375 Z M -15.625 12.59375 "/></g></g></g><g fill="#000000" fill-opacity="1"><g transform="translate(276.508965, 535.414489)"><g><path d="M -11.46875 -14.71875 C -9.394531 -12.226562 -7.742188 -9.53125 -6.515625 -6.625 C -5.296875 -3.71875 -4.707031 -1.097656 -4.75 1.234375 L -11.140625 3.03125 C -11.191406 0.832031 -11.679688 -1.5 -12.609375 -3.96875 C -13.546875 -6.445312 -14.820312 -8.65625 -16.4375 -10.59375 C -18.4375 -13 -20.3125 -14.472656 -22.0625 -15.015625 C -23.8125 -15.554688 -25.316406 -15.300781 -26.578125 -14.25 C -27.503906 -13.476562 -27.992188 -12.515625 -28.046875 -11.359375 C -28.097656 -10.203125 -27.867188 -8.972656 -27.359375 -7.671875 C -26.859375 -6.378906 -26.09375 -4.675781 -25.0625 -2.5625 C -23.601562 0.375 -22.535156 2.847656 -21.859375 4.859375 C -21.179688 6.867188 -21.007812 8.9375 -21.34375 11.0625 C -21.6875 13.1875 -22.921875 15.132812 -25.046875 16.90625 C -26.828125 18.382812 -28.847656 19.242188 -31.109375 19.484375 C -33.367188 19.734375 -35.738281 19.238281 -38.21875 18 C -40.707031 16.757812 -43.128906 14.722656 -45.484375 11.890625 C -47.117188 9.921875 -48.484375 7.78125 -49.578125 5.46875 C -50.679688 3.15625 -51.34375 0.921875 -51.5625 -1.234375 L -45.328125 -3.203125 C -44.984375 -1.097656 -44.390625 0.898438 -43.546875 2.796875 C -42.703125 4.691406 -41.675781 6.367188 -40.46875 7.828125 C -38.5 10.191406 -36.632812 11.617188 -34.875 12.109375 C -33.113281 12.597656 -31.570312 12.289062 -30.25 11.1875 C -29.332031 10.425781 -28.859375 9.472656 -28.828125 8.328125 C -28.796875 7.179688 -29.03125 5.953125 -29.53125 4.640625 C -30.03125 3.335938 -30.800781 1.632812 -31.84375 -0.46875 C -33.269531 -3.320312 -34.320312 -5.765625 -35 -7.796875 C -35.675781 -9.835938 -35.851562 -11.914062 -35.53125 -14.03125 C -35.207031 -16.144531 -34 -18.070312 -31.90625 -19.8125 C -30.132812 -21.289062 -28.117188 -22.144531 -25.859375 -22.375 C -23.609375 -22.613281 -21.234375 -22.109375 -18.734375 -20.859375 C -16.242188 -19.609375 -13.820312 -17.5625 -11.46875 -14.71875 Z M -11.46875 -14.71875 "/></g></g></g><g fill="#000000" fill-opacity="1"><g transform="translate(254.556924, 508.633453)"><g><path d="M -13.875 -19.890625 C -12.800781 -19.492188 -11.785156 -18.847656 -10.828125 -17.953125 C -9.878906 -17.054688 -9.050781 -16.007812 -8.34375 -14.8125 C -6.539062 -11.78125 -5.9375 -8.96875 -6.53125 -6.375 C -7.125 -3.78125 -8.929688 -1.582031 -11.953125 0.21875 L -25.203125 8.109375 L -22.5 12.640625 L -27.65625 15.71875 L -30.359375 11.1875 L -36.65625 14.9375 L -40.484375 8.484375 L -34.1875 4.734375 L -38.578125 -2.625 L -33.421875 -5.703125 L -29.03125 1.65625 L -15.953125 -6.140625 C -14.609375 -6.941406 -13.78125 -7.875 -13.46875 -8.9375 C -13.15625 -10.007812 -13.367188 -11.164062 -14.109375 -12.40625 C -14.972656 -13.851562 -16.066406 -14.832031 -17.390625 -15.34375 Z M -13.875 -19.890625 "/></g></g></g><g fill="#000000" fill-opacity="1"><g transform="translate(242.502836, 489.678667)"><g><path d="M -36.46875 -3.734375 C -38.25 -8.097656 -38.5625 -11.863281 -37.40625 -15.03125 C -36.25 -18.195312 -33.554688 -20.640625 -29.328125 -22.359375 L -11.921875 -29.40625 L -9.265625 -22.84375 L -12.890625 -21.375 C -11.242188 -21.0625 -9.753906 -20.253906 -8.421875 -18.953125 C -7.097656 -17.660156 -5.984375 -15.898438 -5.078125 -13.671875 C -4.179688 -11.453125 -3.773438 -9.351562 -3.859375 -7.375 C -3.941406 -5.394531 -4.472656 -3.675781 -5.453125 -2.21875 C -6.441406 -0.769531 -7.789062 0.300781 -9.5 1 C -12.164062 2.070312 -14.707031 1.941406 -17.125 0.609375 C -19.539062 -0.710938 -21.609375 -3.5 -23.328125 -7.75 L -26.453125 -15.421875 L -26.90625 -15.234375 C -28.976562 -14.398438 -30.316406 -13.132812 -30.921875 -11.4375 C -31.523438 -9.75 -31.332031 -7.6875 -30.34375 -5.25 C -29.664062 -3.570312 -28.742188 -2.03125 -27.578125 -0.625 C -26.410156 0.769531 -25.132812 1.832031 -23.75 2.5625 L -27.703125 7.359375 C -29.523438 6.273438 -31.191406 4.765625 -32.703125 2.828125 C -34.222656 0.898438 -35.476562 -1.285156 -36.46875 -3.734375 Z M -10.734375 -13.0625 C -11.441406 -14.800781 -12.46875 -16.1875 -13.8125 -17.21875 C -15.15625 -18.257812 -16.679688 -18.75 -18.390625 -18.6875 L -21.84375 -17.296875 L -18.9375 -10.140625 C -17.3125 -6.128906 -15.1875 -4.65625 -12.5625 -5.71875 C -11.289062 -6.226562 -10.488281 -7.132812 -10.15625 -8.4375 C -9.820312 -9.75 -10.015625 -11.289062 -10.734375 -13.0625 Z M -10.734375 -13.0625 "/></g></g></g><g fill="#000000" fill-opacity="1"><g transform="translate(229.9049, 459.217584)"><g><path d="M -3.671875 -19.296875 C -2.984375 -16.046875 -3.046875 -12.984375 -3.859375 -10.109375 C -4.679688 -7.234375 -6.160156 -4.8125 -8.296875 -2.84375 C -10.429688 -0.875 -13.046875 0.4375 -16.140625 1.09375 C -19.234375 1.75 -22.144531 1.609375 -24.875 0.671875 C -27.613281 -0.253906 -29.941406 -1.851562 -31.859375 -4.125 C -33.773438 -6.394531 -35.082031 -9.175781 -35.78125 -12.46875 C -36.4375 -15.550781 -36.382812 -18.390625 -35.625 -20.984375 C -34.863281 -23.578125 -33.429688 -25.710938 -31.328125 -27.390625 L -26.84375 -22.46875 C -28.101562 -21.25 -28.953125 -19.882812 -29.390625 -18.375 C -29.835938 -16.875 -29.890625 -15.328125 -29.546875 -13.734375 C -28.960938 -10.992188 -27.585938 -8.910156 -25.421875 -7.484375 C -23.253906 -6.054688 -20.6875 -5.660156 -17.71875 -6.296875 C -14.738281 -6.929688 -12.546875 -8.328125 -11.140625 -10.484375 C -9.742188 -12.640625 -9.34375 -15.109375 -9.9375 -17.890625 C -10.28125 -19.484375 -10.957031 -20.878906 -11.96875 -22.078125 C -12.976562 -23.273438 -14.296875 -24.175781 -15.921875 -24.78125 L -13.84375 -31.109375 C -11.238281 -30.390625 -9.050781 -29 -7.28125 -26.9375 C -5.519531 -24.882812 -4.316406 -22.335938 -3.671875 -19.296875 Z M -3.671875 -19.296875 "/></g></g></g><g fill="#000000" fill-opacity="1"><g transform="translate(222.94131, 428.656028)"><g><path d="M -14.265625 -17.59375 L -8.8125 -12.171875 L -0.359375 -12.421875 L -0.140625 -4.921875 L -44.640625 -3.625 L -44.859375 -11.125 L -18 -11.90625 L -32.84375 -27 L -33.109375 -36 L -19.265625 -23.015625 L -1.109375 -38.203125 L -0.84375 -29.078125 Z M -14.265625 -17.59375 "/></g></g></g><g fill="#000000" fill-opacity="1"><g transform="translate(222.456088, 393.228792)"><g/></g></g><g fill="#000000" fill-opacity="1"><g transform="translate(220.677249, 380.188901)"><g><path d="M -19.09375 -76.75 L 16.5 -50.46875 L 13.921875 -42.59375 L -18.828125 -42.390625 L 7.421875 -22.6875 L 4.828125 -14.78125 L -39.421875 -14.59375 L -36.90625 -22.28125 L -3.3125 -22.28125 L -30.28125 -42.53125 L -28.046875 -49.375 L 5.75 -49.5 L -21.40625 -69.671875 Z M -19.09375 -76.75 "/></g></g></g><g fill="#000000" fill-opacity="1"><g transform="translate(241.697642, 320.314921)"><g><path d="M 5.84375 -38 C 6.28125 -37.71875 6.878906 -37.285156 7.640625 -36.703125 L -6.078125 -15.640625 C -3.847656 -14.710938 -1.648438 -14.648438 0.515625 -15.453125 C 2.679688 -16.253906 4.519531 -17.8125 6.03125 -20.125 C 7.957031 -23.070312 8.566406 -26.140625 7.859375 -29.328125 L 13.921875 -30.171875 C 14.578125 -28.023438 14.675781 -25.789062 14.21875 -23.46875 C 13.757812 -21.144531 12.773438 -18.828125 11.265625 -16.515625 C 9.347656 -13.554688 7.066406 -11.335938 4.421875 -9.859375 C 1.785156 -8.378906 -0.972656 -7.707031 -3.859375 -7.84375 C -6.753906 -7.988281 -9.523438 -8.921875 -12.171875 -10.640625 C -14.785156 -12.347656 -16.75 -14.476562 -18.0625 -17.03125 C -19.382812 -19.59375 -19.945312 -22.3125 -19.75 -25.1875 C -19.5625 -28.0625 -18.601562 -30.828125 -16.875 -33.484375 C -15.175781 -36.085938 -13.070312 -38.039062 -10.5625 -39.34375 C -8.0625 -40.65625 -5.390625 -41.207031 -2.546875 -41 C 0.296875 -40.789062 3.09375 -39.789062 5.84375 -38 Z M -11.84375 -30.203125 C -13.15625 -28.179688 -13.664062 -26.085938 -13.375 -23.921875 C -13.082031 -21.765625 -12.050781 -19.890625 -10.28125 -18.296875 L -0.34375 -33.53125 C -2.46875 -34.53125 -4.582031 -34.734375 -6.6875 -34.140625 C -8.789062 -33.554688 -10.507812 -32.242188 -11.84375 -30.203125 Z M -11.84375 -30.203125 "/></g></g></g><g fill="#000000" fill-opacity="1"><g transform="translate(259.555952, 291.891347)"><g><path d="M -7.4375 -38.84375 C -5.269531 -41.082031 -2.835938 -42.609375 -0.140625 -43.421875 C 2.546875 -44.234375 5.265625 -44.273438 8.015625 -43.546875 C 10.773438 -42.828125 13.316406 -41.335938 15.640625 -39.078125 C 17.960938 -36.828125 19.53125 -34.328125 20.34375 -31.578125 C 21.164062 -28.828125 21.207031 -26.097656 20.46875 -23.390625 C 19.726562 -20.679688 18.273438 -18.207031 16.109375 -15.96875 C 14.566406 -14.382812 12.890625 -13.207031 11.078125 -12.4375 C 9.273438 -11.664062 7.394531 -11.367188 5.4375 -11.546875 L 8.40625 -8.65625 L 3.421875 -3.53125 L -28.5 -34.546875 L -23.265625 -39.921875 L -11.53125 -28.515625 C -11.632812 -30.398438 -11.34375 -32.21875 -10.65625 -33.96875 C -9.96875 -35.726562 -8.894531 -37.351562 -7.4375 -38.84375 Z M 10.921875 -19.859375 C 12.847656 -21.835938 13.765625 -24.101562 13.671875 -26.65625 C 13.585938 -29.207031 12.472656 -31.523438 10.328125 -33.609375 C 8.171875 -35.703125 5.8125 -36.753906 3.25 -36.765625 C 0.695312 -36.785156 -1.539062 -35.804688 -3.46875 -33.828125 C -4.71875 -32.535156 -5.546875 -31.082031 -5.953125 -29.46875 C -6.367188 -27.851562 -6.328125 -26.210938 -5.828125 -24.546875 C -5.328125 -22.890625 -4.359375 -21.363281 -2.921875 -19.96875 C -1.484375 -18.570312 0.0703125 -17.644531 1.75 -17.1875 C 3.425781 -16.738281 5.0625 -16.75 6.65625 -17.21875 C 8.25 -17.6875 9.671875 -18.566406 10.921875 -19.859375 Z M 10.921875 -19.859375 "/></g></g></g><g fill="#000000" fill-opacity="1"><g transform="translate(286.348962, 264.976951)"><g><path d="M -9.203125 -17.828125 L 4.015625 -27.703125 L 7.75 -22.71875 L -5.46875 -12.84375 Z M -9.203125 -17.828125 "/></g></g></g><g fill="#000000" fill-opacity="1"><g transform="translate(303.003159, 252.412563)"><g><path d="M -9.984375 -52.6875 L -4.1875 -56.078125 L 7.28125 2.6875 L 1.484375 6.078125 Z M -9.984375 -52.6875 "/></g></g></g><g fill="#000000" fill-opacity="1"><g transform="translate(318.008997, 241.214873)"><g><path d="M 41.78125 -14.46875 L 32.625 -40.75 L 27.125 -14.46875 L 23.828125 -13.328125 L 3.375 -30.25 L 12.359375 -4.28125 L 5.328125 -1.84375 L -8.40625 -41.53125 L -2.328125 -43.640625 L 22.53125 -22.78125 L 28.90625 -54.453125 L 34.96875 -56.546875 L 48.75 -16.875 Z M 41.78125 -14.46875 "/></g></g></g><g fill="#000000" fill-opacity="1"><g transform="translate(367.935498, 224.515174)"><g><path d="M 19.265625 -1.4375 C 16.046875 -1.125 13.070312 -1.539062 10.34375 -2.6875 C 7.625 -3.832031 5.414062 -5.578125 3.71875 -7.921875 C 2.019531 -10.273438 1.019531 -13.019531 0.71875 -16.15625 C 0.414062 -19.3125 0.867188 -22.191406 2.078125 -24.796875 C 3.296875 -27.410156 5.128906 -29.535156 7.578125 -31.171875 C 10.035156 -32.816406 12.875 -33.796875 16.09375 -34.109375 C 19.363281 -34.421875 22.359375 -34.007812 25.078125 -32.875 C 27.804688 -31.738281 30.015625 -30.003906 31.703125 -27.671875 C 33.398438 -25.347656 34.398438 -22.609375 34.703125 -19.453125 C 35.003906 -16.316406 34.550781 -13.429688 33.34375 -10.796875 C 32.132812 -8.171875 30.300781 -6.03125 27.84375 -4.375 C 25.394531 -2.726562 22.535156 -1.75 19.265625 -1.4375 Z M 18.640625 -7.828125 C 21.390625 -8.097656 23.570312 -9.234375 25.1875 -11.234375 C 26.800781 -13.242188 27.460938 -15.738281 27.171875 -18.71875 C 26.890625 -21.707031 25.757812 -24.03125 23.78125 -25.6875 C 21.8125 -27.351562 19.453125 -28.050781 16.703125 -27.78125 C 13.960938 -27.519531 11.796875 -26.382812 10.203125 -24.375 C 8.617188 -22.375 7.96875 -19.878906 8.25 -16.890625 C 8.539062 -13.910156 9.660156 -11.585938 11.609375 -9.921875 C 13.554688 -8.265625 15.898438 -7.566406 18.640625 -7.828125 Z M 18.640625 -7.828125 "/></g></g></g><g fill="#000000" fill-opacity="1"><g transform="translate(402.602471, 220.657495)"><g><path d="M 25.828125 -29.96875 C 28.921875 -29.65625 31.625 -28.695312 33.9375 -27.09375 C 36.25 -25.488281 37.972656 -23.378906 39.109375 -20.765625 C 40.253906 -18.160156 40.664062 -15.25 40.34375 -12.03125 C 40.019531 -8.800781 39.035156 -6.015625 37.390625 -3.671875 C 35.742188 -1.328125 33.628906 0.394531 31.046875 1.5 C 28.460938 2.613281 25.625 3.015625 22.53125 2.703125 C 20.332031 2.472656 18.363281 1.890625 16.625 0.953125 C 14.894531 0.015625 13.492188 -1.273438 12.421875 -2.921875 L 12 1.203125 L 4.890625 0.5 L 9.359375 -43.796875 L 16.828125 -43.046875 L 15.1875 -26.75 C 16.59375 -28.007812 18.195312 -28.910156 20 -29.453125 C 21.8125 -30.003906 23.753906 -30.175781 25.828125 -29.96875 Z M 22.34375 -3.78125 C 25.09375 -3.5 27.441406 -4.179688 29.390625 -5.828125 C 31.335938 -7.484375 32.460938 -9.804688 32.765625 -12.796875 C 33.066406 -15.773438 32.425781 -18.269531 30.84375 -20.28125 C 29.257812 -22.300781 27.09375 -23.453125 24.34375 -23.734375 C 22.550781 -23.910156 20.894531 -23.660156 19.375 -22.984375 C 17.851562 -22.304688 16.597656 -21.253906 15.609375 -19.828125 C 14.628906 -18.398438 14.039062 -16.691406 13.84375 -14.703125 C 13.644531 -12.710938 13.882812 -10.914062 14.5625 -9.3125 C 15.238281 -7.71875 16.253906 -6.441406 17.609375 -5.484375 C 18.972656 -4.523438 20.550781 -3.957031 22.34375 -3.78125 Z M 22.34375 -3.78125 "/></g></g></g><g fill="#000000" fill-opacity="1"><g transform="translate(440.581399, 225.139373)"><g><path d="M 12.546875 -29.90625 L 19.8125 -28.078125 L 12.046875 3.015625 L 4.78125 1.1875 Z M 17.484375 -34.09375 C 16.160156 -34.425781 15.160156 -35.117188 14.484375 -36.171875 C 13.804688 -37.234375 13.617188 -38.378906 13.921875 -39.609375 C 14.234375 -40.859375 14.9375 -41.789062 16.03125 -42.40625 C 17.125 -43.019531 18.332031 -43.160156 19.65625 -42.828125 C 20.976562 -42.492188 21.984375 -41.816406 22.671875 -40.796875 C 23.367188 -39.785156 23.566406 -38.679688 23.265625 -37.484375 C 22.953125 -36.203125 22.25 -35.234375 21.15625 -34.578125 C 20.0625 -33.921875 18.835938 -33.757812 17.484375 -34.09375 Z M 17.484375 -34.09375 "/></g></g></g><g fill="#000000" fill-opacity="1"><g transform="translate(455.754204, 228.853227)"><g><path d="M 19.09375 -40.515625 L 26.1875 -38.078125 L 11.75 4.03125 L 4.65625 1.59375 Z M 19.09375 -40.515625 "/></g></g></g><g fill="#000000" fill-opacity="1"><g transform="translate(469.940713, 232.815905)"><g><path d="M 38.4375 1.5625 C 38.195312 2.019531 37.828125 2.660156 37.328125 3.484375 L 14.84375 -7.78125 C 14.175781 -5.46875 14.363281 -3.28125 15.40625 -1.21875 C 16.445312 0.84375 18.203125 2.492188 20.671875 3.734375 C 23.816406 5.304688 26.929688 5.566406 30.015625 4.515625 L 31.53125 10.46875 C 29.476562 11.351562 27.269531 11.695312 24.90625 11.5 C 22.550781 11.300781 20.140625 10.582031 17.671875 9.34375 C 14.523438 7.757812 12.066406 5.738281 10.296875 3.28125 C 8.535156 0.832031 7.5625 -1.832031 7.375 -4.71875 C 7.1875 -7.613281 7.800781 -10.472656 9.21875 -13.296875 C 10.613281 -16.085938 12.507812 -18.28125 14.90625 -19.875 C 17.300781 -21.46875 19.9375 -22.328125 22.8125 -22.453125 C 25.6875 -22.578125 28.539062 -21.929688 31.375 -20.515625 C 34.15625 -19.117188 36.335938 -17.25 37.921875 -14.90625 C 39.503906 -12.570312 40.351562 -9.976562 40.46875 -7.125 C 40.582031 -4.269531 39.90625 -1.375 38.4375 1.5625 Z M 28.6875 -15.140625 C 26.53125 -16.222656 24.394531 -16.5 22.28125 -15.96875 C 20.164062 -15.4375 18.414062 -14.203125 17.03125 -12.265625 L 33.28125 -4.109375 C 34.039062 -6.328125 34.007812 -8.445312 33.1875 -10.46875 C 32.363281 -12.488281 30.863281 -14.046875 28.6875 -15.140625 Z M 28.6875 -15.140625 "/></g></g></g><g fill="#000000" fill-opacity="1"><g transform="translate(500.48608, 248.487107)"><g><path d="M 14.09375 -14.265625 L 27.578125 -4.765625 L 23.984375 0.328125 L 10.5 -9.171875 Z M 14.09375 -14.265625 "/></g></g></g><g fill="#000000" fill-opacity="1"><g transform="translate(517.413244, 258.969447)"><g><path d="M 30.171875 16.28125 L 15.265625 1.484375 L 5.484375 5.453125 L -0.203125 -0.203125 L 42.78125 -16.6875 L 48.234375 -11.28125 L 32.09375 31.875 L 26.3125 26.125 Z M 32.671875 10.109375 L 39.984375 -8.5 L 21.46875 -1 Z M 32.671875 10.109375 "/></g></g></g><g fill="#000000" fill-opacity="1"><g transform="translate(546.539819, 287.5561)"><g><path d="M 39.53125 1.359375 C 41.226562 3.972656 42.175781 6.679688 42.375 9.484375 C 42.570312 12.285156 42.007812 14.945312 40.6875 17.46875 C 39.375 20 37.359375 22.144531 34.640625 23.90625 C 31.929688 25.675781 29.144531 26.65625 26.28125 26.84375 C 23.425781 27.03125 20.753906 26.460938 18.265625 25.140625 C 15.785156 23.828125 13.695312 21.863281 12 19.25 C 9.644531 15.625 8.992188 11.972656 10.046875 8.296875 L -3 16.765625 L -7.078125 10.46875 L 29.5625 -13.34375 L 33.453125 -7.359375 L 29.921875 -5.0625 C 31.867188 -4.851562 33.65625 -4.191406 35.28125 -3.078125 C 36.914062 -1.960938 38.332031 -0.484375 39.53125 1.359375 Z M 16.9375 15.046875 C 18.4375 17.359375 20.441406 18.753906 22.953125 19.234375 C 25.460938 19.722656 27.972656 19.148438 30.484375 17.515625 C 33.003906 15.878906 34.550781 13.8125 35.125 11.3125 C 35.707031 8.820312 35.25 6.421875 33.75 4.109375 C 32.769531 2.597656 31.539062 1.460938 30.0625 0.703125 C 28.582031 -0.046875 26.972656 -0.359375 25.234375 -0.234375 C 23.503906 -0.109375 21.800781 0.492188 20.125 1.578125 C 18.445312 2.671875 17.203125 3.984375 16.390625 5.515625 C 15.578125 7.046875 15.21875 8.640625 15.3125 10.296875 C 15.414062 11.953125 15.957031 13.535156 16.9375 15.046875 Z M 16.9375 15.046875 "/></g></g></g><g fill="#000000" fill-opacity="1"><g transform="translate(567.16306, 318.539404)"><g><path d="M 38.453125 9.296875 C 39.585938 12.191406 39.96875 15.035156 39.59375 17.828125 C 39.21875 20.617188 38.128906 23.117188 36.328125 25.328125 C 34.535156 27.535156 32.128906 29.226562 29.109375 30.40625 C 26.097656 31.59375 23.171875 31.988281 20.328125 31.59375 C 17.492188 31.207031 14.992188 30.113281 12.828125 28.3125 C 10.671875 26.519531 9.023438 24.175781 7.890625 21.28125 C 6.304688 17.257812 6.398438 13.546875 8.171875 10.140625 L -6.3125 15.8125 L -9.046875 8.828125 L 31.640625 -7.109375 L 34.25 -0.453125 L 30.328125 1.078125 C 32.191406 1.679688 33.804688 2.6875 35.171875 4.09375 C 36.546875 5.507812 37.640625 7.242188 38.453125 9.296875 Z M 13.5625 18.15625 C 14.570312 20.71875 16.253906 22.488281 18.609375 23.46875 C 20.960938 24.457031 23.535156 24.40625 26.328125 23.3125 C 29.128906 22.21875 31.0625 20.503906 32.125 18.171875 C 33.195312 15.847656 33.226562 13.40625 32.21875 10.84375 C 31.5625 9.164062 30.585938 7.804688 29.296875 6.765625 C 28.003906 5.722656 26.492188 5.085938 24.765625 4.859375 C 23.046875 4.628906 21.253906 4.878906 19.390625 5.609375 C 17.535156 6.335938 16.050781 7.367188 14.9375 8.703125 C 13.832031 10.046875 13.160156 11.535156 12.921875 13.171875 C 12.691406 14.816406 12.90625 16.476562 13.5625 18.15625 Z M 13.5625 18.15625 "/></g></g></g><g fill="#000000" fill-opacity="1"><g transform="translate(580.501949, 354.418452)"><g/></g></g><g fill="#000000" fill-opacity="1"><g transform="translate(585.143729, 367.148428)"><g><path d="M 42.296875 2.765625 L 43.53125 21.078125 C 43.84375 25.546875 43.25 29.578125 41.75 33.171875 C 40.25 36.765625 37.972656 39.628906 34.921875 41.765625 C 31.878906 43.898438 28.285156 45.109375 24.140625 45.390625 C 19.992188 45.671875 16.265625 44.957031 12.953125 43.25 C 9.648438 41.550781 7.015625 39.023438 5.046875 35.671875 C 3.078125 32.316406 1.9375 28.40625 1.625 23.9375 L 0.390625 5.625 Z M 8.1875 23.125 C 8.394531 26.207031 9.164062 28.875 10.5 31.125 C 11.832031 33.382812 13.632812 35.066406 15.90625 36.171875 C 18.175781 37.273438 20.742188 37.734375 23.609375 37.546875 C 26.472656 37.347656 28.945312 36.546875 31.03125 35.140625 C 33.125 33.742188 34.679688 31.835938 35.703125 29.421875 C 36.734375 27.003906 37.144531 24.253906 36.9375 21.171875 L 36.234375 11 L 7.484375 12.953125 Z M 8.1875 23.125 "/></g></g></g><g fill="#000000" fill-opacity="1"><g transform="translate(588.017022, 412.409575)"><g><path d="M 10.5625 36.984375 C 10.050781 36.910156 9.328125 36.757812 8.390625 36.53125 L 12.0625 11.65625 C 9.65625 11.75 7.632812 12.613281 6 14.25 C 4.363281 15.882812 3.34375 18.066406 2.9375 20.796875 C 2.425781 24.285156 3.15625 27.328125 5.125 29.921875 L -0.046875 33.21875 C -1.546875 31.550781 -2.566406 29.5625 -3.109375 27.25 C -3.660156 24.945312 -3.734375 22.429688 -3.328125 19.703125 C -2.816406 16.222656 -1.675781 13.253906 0.09375 10.796875 C 1.875 8.347656 4.109375 6.582031 6.796875 5.5 C 9.484375 4.425781 12.390625 4.117188 15.515625 4.578125 C 18.609375 5.035156 21.285156 6.148438 23.546875 7.921875 C 25.816406 9.703125 27.460938 11.9375 28.484375 14.625 C 29.503906 17.3125 29.78125 20.222656 29.3125 23.359375 C 28.863281 26.441406 27.773438 29.101562 26.046875 31.34375 C 24.328125 33.582031 22.128906 35.203125 19.453125 36.203125 C 16.773438 37.203125 13.8125 37.460938 10.5625 36.984375 Z M 23.375 22.484375 C 23.726562 20.109375 23.320312 18 22.15625 16.15625 C 20.988281 14.3125 19.257812 13.03125 16.96875 12.3125 L 14.328125 30.3125 C 16.671875 30.332031 18.675781 29.632812 20.34375 28.21875 C 22.007812 26.8125 23.019531 24.898438 23.375 22.484375 Z M 23.375 22.484375 "/></g></g></g><g fill="#000000" fill-opacity="1"><g transform="translate(583.279626, 445.901446)"><g><path d="M 19.265625 43.3125 L -6.75 20.078125 L -4.28125 12.734375 L 30.46875 9.921875 L 27.984375 17.3125 L 2.296875 19.1875 L 21.546875 36.484375 Z M 19.265625 43.3125 "/></g></g></g><g fill="#000000" fill-opacity="1"><g transform="translate(573.750457, 475.62361)"><g><path d="M -2.953125 38.34375 C -3.410156 38.09375 -4.035156 37.703125 -4.828125 37.171875 L 7.25 15.125 C 4.96875 14.375 2.769531 14.484375 0.65625 15.453125 C -1.445312 16.421875 -3.160156 18.113281 -4.484375 20.53125 C -6.179688 23.625 -6.554688 26.726562 -5.609375 29.84375 L -11.59375 31.140625 C -12.40625 29.046875 -12.671875 26.820312 -12.390625 24.46875 C -12.109375 22.125 -11.304688 19.742188 -9.984375 17.328125 C -8.285156 14.234375 -6.175781 11.847656 -3.65625 10.171875 C -1.144531 8.492188 1.554688 7.613281 4.453125 7.53125 C 7.347656 7.457031 10.179688 8.179688 12.953125 9.703125 C 15.691406 11.203125 17.816406 13.175781 19.328125 15.625 C 20.835938 18.070312 21.597656 20.734375 21.609375 23.609375 C 21.628906 26.492188 20.878906 29.320312 19.359375 32.09375 C 17.867188 34.832031 15.921875 36.945312 13.515625 38.4375 C 11.117188 39.9375 8.492188 40.691406 5.640625 40.703125 C 2.785156 40.710938 -0.078125 39.925781 -2.953125 38.34375 Z M 14.09375 29.203125 C 15.25 27.097656 15.601562 24.976562 15.15625 22.84375 C 14.707031 20.707031 13.53125 18.910156 11.625 17.453125 L 2.875 33.40625 C 5.070312 34.238281 7.195312 34.28125 9.25 33.53125 C 11.3125 32.789062 12.925781 31.347656 14.09375 29.203125 Z M 14.09375 29.203125 "/></g></g></g><g fill="#000000" fill-opacity="1"><g transform="translate(556.690178, 505.722877)"><g><path d="M 32.875 30.40625 L 28.421875 36.4375 L -7.375 9.984375 L -2.921875 3.953125 Z M 32.875 30.40625 "/></g></g></g><g fill="#000000" fill-opacity="1"><g transform="translate(548.735313, 518.051323)"><g><path d="M -13.796875 13.5 C -11.535156 11.1875 -8.992188 9.585938 -6.171875 8.703125 C -3.359375 7.828125 -0.550781 7.742188 2.25 8.453125 C 5.0625 9.160156 7.597656 10.617188 9.859375 12.828125 C 12.117188 15.035156 13.625 17.523438 14.375 20.296875 C 15.125 23.078125 15.085938 25.882812 14.265625 28.71875 C 13.453125 31.5625 11.914062 34.140625 9.65625 36.453125 C 7.351562 38.804688 4.789062 40.421875 1.96875 41.296875 C -0.84375 42.179688 -3.644531 42.273438 -6.4375 41.578125 C -9.226562 40.890625 -11.753906 39.441406 -14.015625 37.234375 C -16.273438 35.023438 -17.785156 32.523438 -18.546875 29.734375 C -19.316406 26.941406 -19.289062 24.125 -18.46875 21.28125 C -17.65625 18.445312 -16.097656 15.851562 -13.796875 13.5 Z M -9.21875 18 C -11.15625 19.976562 -12.09375 22.25 -12.03125 24.8125 C -11.976562 27.382812 -10.878906 29.722656 -8.734375 31.828125 C -6.597656 33.921875 -4.238281 34.96875 -1.65625 34.96875 C 0.914062 34.976562 3.171875 33.992188 5.109375 32.015625 C 7.023438 30.054688 7.945312 27.789062 7.875 25.21875 C 7.800781 22.65625 6.695312 20.328125 4.5625 18.234375 C 2.414062 16.128906 0.0625 15.070312 -2.5 15.0625 C -5.0625 15.0625 -7.300781 16.039062 -9.21875 18 Z M -9.21875 18 "/></g></g></g><g fill="#000000" fill-opacity="1"><g transform="translate(524.701432, 543.329727)"><g><path d="M -0.453125 39.5625 C -3.023438 41.320312 -5.710938 42.328125 -8.515625 42.578125 C -11.316406 42.835938 -13.992188 42.335938 -16.546875 41.078125 C -19.097656 39.828125 -21.289062 37.863281 -23.125 35.1875 C -24.945312 32.519531 -25.984375 29.753906 -26.234375 26.890625 C -26.492188 24.035156 -25.988281 21.351562 -24.71875 18.84375 C -23.457031 16.34375 -21.539062 14.210938 -18.96875 12.453125 C -15.394531 10.015625 -11.753906 9.269531 -8.046875 10.21875 L -16.8125 -2.609375 L -10.625 -6.828125 L 14.015625 29.25 L 8.125 33.265625 L 5.75 29.78125 C 5.582031 31.75 4.960938 33.554688 3.890625 35.203125 C 2.816406 36.859375 1.367188 38.3125 -0.453125 39.5625 Z M -14.640625 17.28125 C -16.921875 18.832031 -18.273438 20.867188 -18.703125 23.390625 C -19.140625 25.910156 -18.515625 28.40625 -16.828125 30.875 C -15.128906 33.351562 -13.023438 34.851562 -10.515625 35.375 C -8.015625 35.894531 -5.625 35.378906 -3.34375 33.828125 C -1.851562 32.804688 -0.742188 31.550781 -0.015625 30.0625 C 0.703125 28.570312 0.976562 26.960938 0.8125 25.234375 C 0.644531 23.503906 0 21.8125 -1.125 20.15625 C -2.25 18.507812 -3.585938 17.296875 -5.140625 16.515625 C -6.691406 15.734375 -8.289062 15.410156 -9.9375 15.546875 C -11.582031 15.679688 -13.148438 16.257812 -14.640625 17.28125 Z M -14.640625 17.28125 "/></g></g></g><g fill="#000000" fill-opacity="1"><g transform="translate(493.944617, 564.559853)"><g><path d="M -25.953125 28.390625 C -26.160156 27.910156 -26.414062 27.210938 -26.71875 26.296875 L -3.609375 16.375 C -4.941406 14.382812 -6.734375 13.117188 -8.984375 12.578125 C -11.242188 12.046875 -13.640625 12.320312 -16.171875 13.40625 C -19.410156 14.800781 -21.617188 17.015625 -22.796875 20.046875 L -28.3125 17.375 C -27.664062 15.226562 -26.507812 13.316406 -24.84375 11.640625 C -23.175781 9.960938 -21.070312 8.582031 -18.53125 7.5 C -15.300781 6.101562 -12.171875 5.519531 -9.140625 5.75 C -6.117188 5.976562 -3.445312 6.953125 -1.125 8.671875 C 1.195312 10.398438 2.984375 12.71875 4.234375 15.625 C 5.460938 18.488281 5.914062 21.347656 5.59375 24.203125 C 5.269531 27.054688 4.226562 29.625 2.46875 31.90625 C 0.71875 34.195312 -1.609375 35.96875 -4.515625 37.21875 C -7.378906 38.445312 -10.210938 38.910156 -13.015625 38.609375 C -15.828125 38.316406 -18.359375 37.289062 -20.609375 35.53125 C -22.867188 33.78125 -24.648438 31.398438 -25.953125 28.390625 Z M -6.890625 31.703125 C -4.679688 30.753906 -3.097656 29.296875 -2.140625 27.328125 C -1.179688 25.367188 -0.992188 23.234375 -1.578125 20.921875 L -18.296875 28.09375 C -17.085938 30.101562 -15.441406 31.445312 -13.359375 32.125 C -11.285156 32.800781 -9.128906 32.660156 -6.890625 31.703125 Z M -6.890625 31.703125 "/></g></g></g><g fill="#000000" fill-opacity="1"><g transform="translate(462.400923, 577.86149)"><g><path d="M -4.875 29.5 C -6.125 33.300781 -9.382812 35.878906 -14.65625 37.234375 L -16.4375 30.3125 C -15.789062 30.257812 -15.210938 30.171875 -14.703125 30.046875 C -11.878906 29.316406 -9.882812 27.925781 -8.71875 25.875 C -7.550781 23.820312 -7.363281 21.25 -8.15625 18.15625 L -12.03125 3.09375 L -4.765625 1.21875 L 3.203125 32.25 L -3.71875 34.03125 Z M -4.875 29.5 "/></g></g></g><g fill="#000000" fill-opacity="1"><g transform="translate(439.978283, 583.505242)"><g/></g></g><g fill="#000000" fill-opacity="1"><g transform="translate(425.260704, 585.788027)"><g><path d="M -7.734375 12.234375 C -6.335938 12.140625 -5.140625 12.519531 -4.140625 13.375 C -3.140625 14.226562 -2.59375 15.414062 -2.5 16.9375 C -2.40625 18.375 -2.796875 19.59375 -3.671875 20.59375 C -4.546875 21.59375 -5.679688 22.140625 -7.078125 22.234375 C -8.523438 22.328125 -9.734375 21.941406 -10.703125 21.078125 C -11.671875 20.210938 -12.207031 19.046875 -12.3125 17.578125 C -12.40625 16.054688 -12.023438 14.804688 -11.171875 13.828125 C -10.328125 12.859375 -9.179688 12.328125 -7.734375 12.234375 Z M -7.734375 12.234375 "/></g></g></g></svg>