<svg xmlns="http://www.w3.org/2000/svg" xmlns:xlink="http://www.w3.org/1999/xlink" width="1080" zoomAndPan="magnify" viewBox="0 0 810 809.999993" height="1080" preserveAspectRatio="xMidYMid meet" version="1.0"><defs><g/></defs><g fill="#000000" fill-opacity="1"><g transform="translate(406.467832, 621.476749)"><g/></g></g><g fill="#000000" fill-opacity="1"><g transform="translate(395.380164, 622.940683)"><g><path d="M -20.140625 -3.546875 L -10.8125 -1.90625 L -8.578125 41.96875 L -16.890625 40.5 L -18.03125 9.75 L -18.765625 9.609375 L -31.546875 37.921875 L -38.671875 36.671875 L -41.15625 5.671875 L -41.875 5.546875 L -53.5 34.0625 L -61.53125 32.65625 L -44.453125 -7.828125 L -35.109375 -6.1875 L -32.515625 22.328125 L -31.90625 22.421875 Z M -20.140625 -3.546875 "/></g></g></g><g fill="#000000" fill-opacity="1"><g transform="translate(344.417995, 613.363953)"><g><path d="M -34.953125 2 L -15.53125 9.40625 C -14.757812 6.6875 -14.78125 4.488281 -15.59375 2.8125 C -16.40625 1.132812 -17.914062 -0.125 -20.125 -0.96875 C -21.863281 -1.632812 -23.394531 -1.847656 -24.71875 -1.609375 C -26.039062 -1.378906 -27.285156 -0.734375 -28.453125 0.328125 L -29.03125 0.109375 L -32.828125 -5.03125 C -31.023438 -6.769531 -28.878906 -7.914062 -26.390625 -8.46875 C -23.910156 -9.019531 -21.003906 -8.660156 -17.671875 -7.390625 C -14.554688 -6.203125 -12.085938 -4.582031 -10.265625 -2.53125 C -8.453125 -0.488281 -7.378906 1.9375 -7.046875 4.75 C -6.710938 7.570312 -7.1875 10.671875 -8.46875 14.046875 C -9.78125 17.484375 -11.53125 20.128906 -13.71875 21.984375 C -15.914062 23.835938 -18.335938 24.921875 -20.984375 25.234375 C -23.640625 25.554688 -26.347656 25.191406 -29.109375 24.140625 C -33.378906 22.503906 -36.210938 20.125 -37.609375 17 C -39.015625 13.875 -38.882812 10.125 -37.21875 5.75 C -36.601562 4.144531 -36.078125 2.925781 -35.640625 2.09375 Z M -30.3125 9.390625 C -31.101562 11.710938 -31.203125 13.585938 -30.609375 15.015625 C -30.023438 16.441406 -28.773438 17.519531 -26.859375 18.25 C -23.023438 19.707031 -19.929688 18.375 -17.578125 14.25 Z M -30.3125 9.390625 "/></g></g></g><g fill="#000000" fill-opacity="1"><g transform="translate(314.609727, 602.410324)"><g><path d="M -19.328125 -11.734375 C -15.742188 -9.691406 -13.835938 -6.832031 -13.609375 -3.15625 L -13.015625 -2.96875 L -11.09375 -6.34375 L -4.046875 -2.3125 L -26.515625 37.015625 L -33.5625 32.984375 L -25.234375 18.40625 L -25.703125 18.015625 C -27.441406 18.796875 -29.148438 19.132812 -30.828125 19.03125 C -32.503906 18.925781 -34.257812 18.347656 -36.09375 17.296875 C -38.363281 16.003906 -40.039062 14.335938 -41.125 12.296875 C -42.21875 10.265625 -42.613281 7.882812 -42.3125 5.15625 C -42.019531 2.4375 -40.953125 -0.53125 -39.109375 -3.75 C -37.296875 -6.9375 -35.273438 -9.335938 -33.046875 -10.953125 C -30.828125 -12.578125 -28.539062 -13.429688 -26.1875 -13.515625 C -23.84375 -13.609375 -21.554688 -13.015625 -19.328125 -11.734375 Z M -20.578125 -4.546875 C -22.648438 -5.722656 -24.625 -5.925781 -26.5 -5.15625 C -28.382812 -4.394531 -30.164062 -2.539062 -31.84375 0.40625 C -33.539062 3.375 -34.238281 5.859375 -33.9375 7.859375 C -33.644531 9.867188 -32.460938 11.460938 -30.390625 12.640625 C -28.410156 13.773438 -26.429688 13.957031 -24.453125 13.1875 C -22.484375 12.425781 -20.671875 10.601562 -19.015625 7.71875 C -17.367188 4.832031 -16.722656 2.347656 -17.078125 0.265625 C -17.429688 -1.804688 -18.597656 -3.410156 -20.578125 -4.546875 Z M -20.578125 -4.546875 "/></g></g></g><g fill="#000000" fill-opacity="1"><g transform="translate(283.712451, 584.472753)"><g><path d="M -2.546875 -9.65625 L 3.578125 -4.984375 L -40.328125 26.203125 L -46.46875 21.5 Z M -2.546875 -9.65625 "/></g></g></g><g fill="#000000" fill-opacity="1"><g transform="translate(265.592485, 572.605365)"><g><path d="M -9.09375 -9.75 L -3.796875 -4.0625 L -35.125 25.140625 L -42.671875 17.03125 L -27.046875 -12.375 L -27.453125 -12.8125 L -57.84375 0.765625 L -65.21875 -7.140625 L -33.890625 -36.34375 L -28.40625 -30.46875 L -49.109375 -11.171875 L -48.6875 -10.546875 L -21.15625 -22.703125 L -16.34375 -17.53125 L -30.375 9.09375 L -29.796875 9.546875 Z M -9.09375 -9.75 "/></g></g></g><g fill="#000000" fill-opacity="1"><g transform="translate(231.127611, 534.991723)"><g><path d="M -9.40625 -16.28125 C -7.726562 -13.582031 -6.804688 -10.875 -6.640625 -8.15625 C -6.484375 -5.445312 -7.125 -2.867188 -8.5625 -0.421875 C -10 2.023438 -12.222656 4.1875 -15.234375 6.0625 C -18.253906 7.9375 -21.179688 8.976562 -24.015625 9.1875 C -26.859375 9.394531 -29.460938 8.832031 -31.828125 7.5 C -34.191406 6.164062 -36.210938 4.148438 -37.890625 1.453125 C -39.566406 -1.234375 -40.484375 -3.9375 -40.640625 -6.65625 C -40.796875 -9.375 -40.15625 -11.960938 -38.71875 -14.421875 C -37.28125 -16.878906 -35.050781 -19.046875 -32.03125 -20.921875 C -29.019531 -22.796875 -26.09375 -23.832031 -23.25 -24.03125 C -20.414062 -24.226562 -17.816406 -23.65625 -15.453125 -22.3125 C -13.097656 -20.976562 -11.082031 -18.96875 -9.40625 -16.28125 Z M -15.234375 -12.640625 C -17.890625 -16.898438 -22.015625 -17.289062 -27.609375 -13.8125 C -30.515625 -12.007812 -32.300781 -10.132812 -32.96875 -8.1875 C -33.632812 -6.25 -33.320312 -4.25 -32.03125 -2.1875 C -29.375 2.082031 -25.242188 2.472656 -19.640625 -1.015625 C -14.046875 -4.492188 -12.578125 -8.367188 -15.234375 -12.640625 Z M -15.234375 -12.640625 "/></g></g></g><g fill="#000000" fill-opacity="1"><g transform="translate(212.857563, 506.233574)"><g><path d="M -8.171875 -21.0625 C -6.578125 -17.257812 -6.816406 -13.835938 -8.890625 -10.796875 L -8.53125 -10.28125 L -4.9375 -11.78125 L -1.796875 -4.296875 L -43.5625 13.234375 L -46.703125 5.75 L -31.21875 -0.75 L -31.359375 -1.359375 C -33.210938 -1.796875 -34.773438 -2.5625 -36.046875 -3.65625 C -37.316406 -4.757812 -38.363281 -6.289062 -39.1875 -8.25 C -40.195312 -10.65625 -40.507812 -13 -40.125 -15.28125 C -39.738281 -17.5625 -38.597656 -19.691406 -36.703125 -21.671875 C -34.816406 -23.648438 -32.164062 -25.351562 -28.75 -26.78125 C -25.363281 -28.207031 -22.296875 -28.882812 -19.546875 -28.8125 C -16.796875 -28.738281 -14.460938 -28.019531 -12.546875 -26.65625 C -10.628906 -25.300781 -9.171875 -23.4375 -8.171875 -21.0625 Z M -13.5625 -16.140625 C -14.488281 -18.335938 -15.925781 -19.703125 -17.875 -20.234375 C -19.832031 -20.765625 -22.378906 -20.375 -25.515625 -19.0625 C -28.660156 -17.738281 -30.722656 -16.191406 -31.703125 -14.421875 C -32.691406 -12.660156 -32.722656 -10.679688 -31.796875 -8.484375 C -30.921875 -6.378906 -29.46875 -5.023438 -27.4375 -4.421875 C -25.40625 -3.828125 -22.859375 -4.171875 -19.796875 -5.453125 C -16.722656 -6.742188 -14.695312 -8.320312 -13.71875 -10.1875 C -12.738281 -12.050781 -12.6875 -14.035156 -13.5625 -16.140625 Z M -13.5625 -16.140625 "/></g></g></g><g fill="#000000" fill-opacity="1"><g transform="translate(199.33366, 472.791385)"><g><path d="M -37.1875 1.640625 C -36.78125 3.046875 -36.875 4.3125 -37.46875 5.4375 C -38.0625 6.5625 -39.035156 7.316406 -40.390625 7.703125 C -41.722656 8.085938 -42.941406 7.960938 -44.046875 7.328125 C -45.160156 6.703125 -45.921875 5.6875 -46.328125 4.28125 C -46.597656 3.332031 -46.640625 2.4375 -46.453125 1.59375 C -46.265625 0.75 -45.882812 0.0234375 -45.3125 -0.578125 C -44.75 -1.179688 -44.03125 -1.613281 -43.15625 -1.875 C -42.269531 -2.125 -41.421875 -2.144531 -40.609375 -1.9375 C -39.796875 -1.726562 -39.085938 -1.316406 -38.484375 -0.703125 C -37.890625 -0.0859375 -37.457031 0.691406 -37.1875 1.640625 Z M -1.28125 -4.46875 L -32.328125 4.46875 L -34.578125 -3.34375 L -3.53125 -12.28125 Z M -1.28125 -4.46875 "/></g></g></g><g fill="#000000" fill-opacity="1"><g transform="translate(194.905814, 457.705011)"><g><path d="M -2.140625 -13.265625 C -1.546875 -10.410156 -1.859375 -8.070312 -3.078125 -6.25 C -4.304688 -4.425781 -6.488281 -3.191406 -9.625 -2.546875 L -45.25 4.859375 L -46.90625 -3.078125 L -11.609375 -10.421875 C -9.671875 -10.816406 -8.867188 -11.820312 -9.203125 -13.4375 C -9.296875 -13.894531 -9.46875 -14.367188 -9.71875 -14.859375 L -9.703125 -15.28125 L -3.734375 -17.265625 C -3.410156 -16.878906 -3.109375 -16.332031 -2.828125 -15.625 C -2.546875 -14.925781 -2.316406 -14.140625 -2.140625 -13.265625 Z M -2.140625 -13.265625 "/></g></g></g><g fill="#000000" fill-opacity="1"><g transform="translate(191.040411, 442.057797)"><g><path d="M -17.21875 -30.46875 L -15.296875 -9.78125 C -12.515625 -10.28125 -10.550781 -11.269531 -9.40625 -12.75 C -8.257812 -14.226562 -7.796875 -16.144531 -8.015625 -18.5 C -8.179688 -20.34375 -8.664062 -21.804688 -9.46875 -22.890625 C -10.269531 -23.984375 -11.398438 -24.8125 -12.859375 -25.375 L -12.921875 -26 L -9.96875 -31.6875 C -7.625 -30.832031 -5.648438 -29.410156 -4.046875 -27.421875 C -2.453125 -25.441406 -1.492188 -22.679688 -1.171875 -19.140625 C -0.859375 -15.816406 -1.21875 -12.882812 -2.25 -10.34375 C -3.289062 -7.800781 -5 -5.753906 -7.375 -4.203125 C -9.75 -2.660156 -12.738281 -1.722656 -16.34375 -1.390625 C -20 -1.054688 -23.144531 -1.460938 -25.78125 -2.609375 C -28.414062 -3.753906 -30.460938 -5.445312 -31.921875 -7.6875 C -33.378906 -9.925781 -34.242188 -12.515625 -34.515625 -15.453125 C -34.941406 -20.003906 -34.0625 -23.597656 -31.875 -26.234375 C -29.6875 -28.878906 -26.257812 -30.421875 -21.59375 -30.859375 C -19.894531 -31.015625 -18.570312 -31.078125 -17.625 -31.046875 Z M -21.8125 -23.046875 C -24.25 -22.734375 -25.972656 -21.992188 -26.984375 -20.828125 C -28.003906 -19.671875 -28.421875 -18.070312 -28.234375 -16.03125 C -27.859375 -11.945312 -25.296875 -9.765625 -20.546875 -9.484375 Z M -21.8125 -23.046875 "/></g></g></g><g fill="#000000" fill-opacity="1"><g transform="translate(188.237461, 409.768351)"><g><path d="M -16.640625 -21 L -17.15625 -3.046875 L -24.28125 -3.25 L -23.765625 -21.203125 Z M -16.640625 -21 "/></g></g></g><g fill="#000000" fill-opacity="1"><g transform="translate(187.988065, 389.584253)"><g><path d="M 6.71875 -40.5625 L 5.265625 -31.765625 L -5 -30.1875 L -7.671875 -14 L 1.53125 -9.21875 L 0.109375 -0.625 L -39.71875 -22.234375 L -37.9375 -32.953125 Z M -30.109375 -25.625 L -14.328125 -17.4375 L -12.40625 -29.046875 L -29.984375 -26.359375 Z M -30.109375 -25.625 "/></g></g></g><g fill="#000000" fill-opacity="1"><g transform="translate(194.037593, 351.998915)"><g><path d="M 13.890625 -0.140625 L -29.03125 -14.953125 L -26.375 -22.625 L -22.390625 -21.25 L -22.078125 -21.78125 C -23.304688 -23.226562 -24.054688 -24.84375 -24.328125 -26.625 C -24.597656 -28.40625 -24.382812 -30.316406 -23.6875 -32.359375 C -22.832031 -34.804688 -21.503906 -36.75 -19.703125 -38.1875 C -17.910156 -39.625 -15.648438 -40.441406 -12.921875 -40.640625 C -10.191406 -40.835938 -7.070312 -40.332031 -3.5625 -39.125 C -0.0820312 -37.925781 2.648438 -36.378906 4.640625 -34.484375 C 6.640625 -32.585938 7.894531 -30.476562 8.40625 -28.15625 C 8.914062 -25.832031 8.734375 -23.414062 7.859375 -20.90625 C 7.203125 -19 6.316406 -17.460938 5.203125 -16.296875 C 4.085938 -15.128906 2.691406 -14.300781 1.015625 -13.8125 L 0.9375 -13.1875 L 16.546875 -7.8125 Z M 0.625 -21.015625 C 1.414062 -23.304688 1.265625 -25.300781 0.171875 -27 C -0.910156 -28.695312 -3.066406 -30.101562 -6.296875 -31.21875 C -9.523438 -32.332031 -12.097656 -32.554688 -14.015625 -31.890625 C -15.929688 -31.234375 -17.285156 -29.757812 -18.078125 -27.46875 C -18.816406 -25.332031 -18.625 -23.367188 -17.5 -21.578125 C -16.382812 -19.785156 -14.253906 -18.347656 -11.109375 -17.265625 C -7.992188 -16.191406 -5.441406 -16.015625 -3.453125 -16.734375 C -1.472656 -17.453125 -0.113281 -18.878906 0.625 -21.015625 Z M 0.625 -21.015625 "/></g></g></g><g fill="#000000" fill-opacity="1"><g transform="translate(205.240542, 318.666557)"><g><path d="M 13.734375 2.109375 L -26.25 -19.421875 L -22.390625 -26.578125 L -18.671875 -24.578125 L -18.296875 -25.0625 C -19.273438 -26.6875 -19.75 -28.398438 -19.71875 -30.203125 C -19.695312 -32.003906 -19.175781 -33.851562 -18.15625 -35.75 C -16.925781 -38.03125 -15.304688 -39.734375 -13.296875 -40.859375 C -11.285156 -41.984375 -8.921875 -42.425781 -6.203125 -42.1875 C -3.484375 -41.957031 -0.488281 -40.960938 2.78125 -39.203125 C 6.019531 -37.453125 8.46875 -35.476562 10.125 -33.28125 C 11.789062 -31.09375 12.6875 -28.8125 12.8125 -26.4375 C 12.945312 -24.070312 12.382812 -21.71875 11.125 -19.375 C 10.164062 -17.601562 9.039062 -16.226562 7.75 -15.25 C 6.46875 -14.28125 4.957031 -13.691406 3.21875 -13.484375 L 3.046875 -12.875 L 17.59375 -5.046875 Z M 4 -20.625 C 5.144531 -22.769531 5.316406 -24.765625 4.515625 -26.609375 C 3.710938 -28.460938 1.8125 -30.203125 -1.1875 -31.828125 C -4.195312 -33.441406 -6.703125 -34.078125 -8.703125 -33.734375 C -10.703125 -33.390625 -12.273438 -32.144531 -13.421875 -30 C -14.492188 -28.007812 -14.617188 -26.039062 -13.796875 -24.09375 C -12.984375 -22.15625 -11.113281 -20.398438 -8.1875 -18.828125 C -5.28125 -17.265625 -2.789062 -16.675781 -0.71875 -17.0625 C 1.351562 -17.445312 2.925781 -18.632812 4 -20.625 Z M 4 -20.625 "/></g></g></g><g fill="#000000" fill-opacity="1"><g transform="translate(222.8884, 287.041489)"><g/></g></g><g fill="#000000" fill-opacity="1"><g transform="translate(229.004293, 276.902867)"><g><path d="M 12.859375 -14 C 10.921875 -11.75 8.914062 -9.984375 6.84375 -8.703125 C 4.78125 -7.421875 2.789062 -6.582031 0.875 -6.1875 C -1.03125 -5.789062 -2.789062 -5.753906 -4.40625 -6.078125 L -5.671875 -13.3125 L -5.1875 -13.875 C -2.894531 -13.59375 -0.675781 -13.832031 1.46875 -14.59375 C 3.625 -15.351562 5.570312 -16.742188 7.3125 -18.765625 C 8.789062 -20.484375 9.539062 -22.085938 9.5625 -23.578125 C 9.582031 -25.078125 8.957031 -26.375 7.6875 -27.46875 C 6.914062 -28.132812 6.148438 -28.550781 5.390625 -28.71875 C 4.640625 -28.882812 3.796875 -28.800781 2.859375 -28.46875 C 1.929688 -28.144531 0.851562 -27.539062 -0.375 -26.65625 L -4.921875 -23.28125 C -8.097656 -20.957031 -11.070312 -19.742188 -13.84375 -19.640625 C -16.625 -19.535156 -19.25 -20.550781 -21.71875 -22.6875 C -23.550781 -24.257812 -24.769531 -26.101562 -25.375 -28.21875 C -25.976562 -30.34375 -25.90625 -32.613281 -25.15625 -35.03125 C -24.414062 -37.445312 -23 -39.875 -20.90625 -42.3125 C -18.75 -44.820312 -16.570312 -46.679688 -14.375 -47.890625 C -12.1875 -49.109375 -9.878906 -49.742188 -7.453125 -49.796875 L -5.84375 -42.875 L -6.328125 -42.328125 C -8.066406 -42.242188 -9.6875 -41.8125 -11.1875 -41.03125 C -12.695312 -40.257812 -14.113281 -39.109375 -15.4375 -37.578125 C -16.945312 -35.816406 -17.785156 -34.210938 -17.953125 -32.765625 C -18.117188 -31.316406 -17.648438 -30.125 -16.546875 -29.1875 C -15.535156 -28.300781 -14.445312 -27.914062 -13.28125 -28.03125 C -12.113281 -28.15625 -10.675781 -28.863281 -8.96875 -30.15625 L -4.421875 -33.65625 C -1.046875 -36.238281 2.046875 -37.550781 4.859375 -37.59375 C 7.671875 -37.644531 10.363281 -36.566406 12.9375 -34.359375 C 14.957031 -32.617188 16.34375 -30.664062 17.09375 -28.5 C 17.84375 -26.34375 17.875 -24.023438 17.1875 -21.546875 C 16.5 -19.066406 15.054688 -16.550781 12.859375 -14 Z M 12.859375 -14 "/></g></g></g><g fill="#000000" fill-opacity="1"><g transform="translate(250.570067, 251.405483)"><g><path d="M 14.703125 -11.703125 C 12.285156 -9.648438 9.742188 -8.34375 7.078125 -7.78125 C 4.421875 -7.21875 1.78125 -7.460938 -0.84375 -8.515625 C -3.46875 -9.578125 -5.929688 -11.460938 -8.234375 -14.171875 C -10.535156 -16.878906 -12 -19.617188 -12.625 -22.390625 C -13.257812 -25.171875 -13.085938 -27.832031 -12.109375 -30.375 C -11.128906 -32.914062 -9.429688 -35.210938 -7.015625 -37.265625 C -4.609375 -39.304688 -2.070312 -40.609375 0.59375 -41.171875 C 3.257812 -41.734375 5.910156 -41.484375 8.546875 -40.421875 C 11.191406 -39.359375 13.664062 -37.472656 15.96875 -34.765625 C 18.269531 -32.054688 19.726562 -29.316406 20.34375 -26.546875 C 20.957031 -23.773438 20.769531 -21.117188 19.78125 -18.578125 C 18.800781 -16.035156 17.109375 -13.742188 14.703125 -11.703125 Z M 10.25 -16.953125 C 14.070312 -20.203125 13.851562 -24.332031 9.59375 -29.34375 C 7.375 -31.945312 5.253906 -33.4375 3.234375 -33.8125 C 1.222656 -34.1875 -0.707031 -33.585938 -2.5625 -32.015625 C -6.382812 -28.753906 -6.15625 -24.609375 -1.875 -19.578125 C 2.382812 -14.566406 6.425781 -13.691406 10.25 -16.953125 Z M 10.25 -16.953125 "/></g></g></g><g fill="#000000" fill-opacity="1"><g transform="translate(277.439602, 229.088957)"><g><path d="M 11.515625 -6.9375 C 9.085938 -5.320312 6.796875 -4.742188 4.640625 -5.203125 C 2.492188 -5.660156 0.535156 -7.21875 -1.234375 -9.875 L -21.40625 -40.171875 L -14.65625 -44.671875 L 5.328125 -14.65625 C 6.429688 -13.007812 7.671875 -12.640625 9.046875 -13.546875 C 9.429688 -13.804688 9.800781 -14.144531 10.15625 -14.5625 L 10.546875 -14.703125 L 14.625 -9.90625 C 14.382812 -9.46875 13.992188 -8.988281 13.453125 -8.46875 C 12.910156 -7.945312 12.265625 -7.4375 11.515625 -6.9375 Z M 11.515625 -6.9375 "/></g></g></g><g fill="#000000" fill-opacity="1"><g transform="translate(290.38198, 219.631448)"><g><path d="M 13.46875 -6.15625 C 10.226562 -4.507812 7.382812 -4.175781 4.9375 -5.15625 C 2.5 -6.144531 0.441406 -8.296875 -1.234375 -11.609375 L -10.9375 -30.6875 L -3.6875 -34.359375 L 5.546875 -16.1875 C 6.441406 -14.4375 7.472656 -13.347656 8.640625 -12.921875 C 9.804688 -12.492188 11.175781 -12.679688 12.75 -13.484375 C 14.757812 -14.503906 15.984375 -15.957031 16.421875 -17.84375 C 16.867188 -19.726562 16.378906 -22.078125 14.953125 -24.890625 L 7.296875 -39.953125 L 14.515625 -43.625 L 29.15625 -14.828125 L 22.234375 -11.3125 L 20.078125 -15.546875 L 19.453125 -15.375 C 19.378906 -13.25 18.878906 -11.441406 17.953125 -9.953125 C 17.035156 -8.472656 15.539062 -7.207031 13.46875 -6.15625 Z M 13.46875 -6.15625 "/></g></g></g><g fill="#000000" fill-opacity="1"><g transform="translate(321.204553, 204.192869)"><g><path d="M 18.453125 -14.703125 L 22.453125 -9.75 C 21.859375 -8.769531 21.003906 -7.863281 19.890625 -7.03125 C 18.773438 -6.207031 17.421875 -5.515625 15.828125 -4.953125 C 12.535156 -3.785156 9.710938 -3.796875 7.359375 -4.984375 C 5.015625 -6.171875 3.238281 -8.476562 2.03125 -11.90625 L -3.09375 -26.390625 L -7.734375 -24.75 L -9.875 -30.8125 L -5.234375 -32.453125 L -7.34375 -38.390625 L -0.125 -42.359375 L 2.421875 -35.15625 L 11.0625 -38.21875 L 13.203125 -32.15625 L 4.5625 -29.09375 L 9.484375 -15.171875 C 10.023438 -13.660156 10.726562 -12.664062 11.59375 -12.1875 C 12.46875 -11.71875 13.503906 -11.695312 14.703125 -12.125 C 16.054688 -12.601562 17.117188 -13.394531 17.890625 -14.5 Z M 18.453125 -14.703125 "/></g></g></g><g fill="#000000" fill-opacity="1"><g transform="translate(343.027344, 196.56059)"><g><path d="M -0.5625 -37.203125 C -1.988281 -36.835938 -3.253906 -36.972656 -4.359375 -37.609375 C -5.472656 -38.242188 -6.203125 -39.242188 -6.546875 -40.609375 C -6.898438 -41.953125 -6.738281 -43.164062 -6.0625 -44.25 C -5.394531 -45.332031 -4.347656 -46.054688 -2.921875 -46.421875 C -1.972656 -46.671875 -1.078125 -46.691406 -0.234375 -46.484375 C 0.597656 -46.273438 1.304688 -45.875 1.890625 -45.28125 C 2.472656 -44.695312 2.878906 -43.960938 3.109375 -43.078125 C 3.328125 -42.179688 3.320312 -41.332031 3.09375 -40.53125 C 2.875 -39.726562 2.445312 -39.035156 1.8125 -38.453125 C 1.175781 -37.867188 0.382812 -37.453125 -0.5625 -37.203125 Z M 4.515625 -1.15625 L -3.515625 -32.453125 L 4.34375 -34.46875 L 12.375 -3.171875 Z M 4.515625 -1.15625 "/></g></g></g><g fill="#000000" fill-opacity="1"><g transform="translate(357.268667, 192.159111)"><g><path d="M 18.6875 -1.9375 C 15.550781 -1.507812 12.707031 -1.773438 10.15625 -2.734375 C 7.613281 -3.703125 5.519531 -5.335938 3.875 -7.640625 C 2.226562 -9.953125 1.164062 -12.863281 0.6875 -16.375 C 0.195312 -19.894531 0.429688 -22.992188 1.390625 -25.671875 C 2.359375 -28.359375 3.9375 -30.503906 6.125 -32.109375 C 8.320312 -33.722656 10.988281 -34.742188 14.125 -35.171875 C 17.257812 -35.609375 20.097656 -35.34375 22.640625 -34.375 C 25.191406 -33.414062 27.296875 -31.773438 28.953125 -29.453125 C 30.609375 -27.140625 31.679688 -24.222656 32.171875 -20.703125 C 32.648438 -17.191406 32.398438 -14.097656 31.421875 -11.421875 C 30.453125 -8.753906 28.867188 -6.613281 26.671875 -5 C 24.484375 -3.394531 21.820312 -2.375 18.6875 -1.9375 Z M 17.75 -8.75 C 22.71875 -9.4375 24.757812 -13.039062 23.875 -19.5625 C 23.40625 -22.945312 22.421875 -25.34375 20.921875 -26.75 C 19.429688 -28.15625 17.476562 -28.691406 15.0625 -28.359375 C 10.082031 -27.679688 8.046875 -24.066406 8.953125 -17.515625 C 9.835938 -10.992188 12.769531 -8.070312 17.75 -8.75 Z M 17.75 -8.75 "/></g></g></g><g fill="#000000" fill-opacity="1"><g transform="translate(391.02117, 187.240107)"><g><path d="M 4.65625 0.09375 L 5.34375 -32.21875 L 13.140625 -32.046875 L 13.03125 -27.296875 L 13.640625 -27.140625 C 15.722656 -30.773438 19.023438 -32.546875 23.546875 -32.453125 C 27.273438 -32.378906 29.988281 -31.304688 31.6875 -29.234375 C 33.394531 -27.171875 34.207031 -24.191406 34.125 -20.296875 L 33.6875 0.703125 L 25.578125 0.546875 L 26 -19.46875 C 26.039062 -21.613281 25.640625 -23.171875 24.796875 -24.140625 C 23.960938 -25.109375 22.597656 -25.613281 20.703125 -25.65625 C 18.378906 -25.695312 16.550781 -24.976562 15.21875 -23.5 C 13.894531 -22.03125 13.203125 -19.6875 13.140625 -16.46875 L 12.78125 0.265625 Z M 4.65625 0.09375 "/></g></g></g><g fill="#000000" fill-opacity="1"><g transform="translate(425.731245, 188.035922)"><g><path d="M 14.828125 3.046875 C 12.648438 2.679688 10.695312 2.097656 8.96875 1.296875 C 7.238281 0.492188 5.804688 -0.457031 4.671875 -1.5625 C 3.535156 -2.664062 2.753906 -3.847656 2.328125 -5.109375 L 7.5625 -9.171875 L 8.15625 -9.078125 C 8.988281 -7.472656 10.066406 -6.195312 11.390625 -5.25 C 12.722656 -4.3125 14.238281 -3.703125 15.9375 -3.421875 C 17.5 -3.160156 18.71875 -3.242188 19.59375 -3.671875 C 20.476562 -4.109375 21.007812 -4.847656 21.1875 -5.890625 C 21.3125 -6.691406 21.132812 -7.410156 20.65625 -8.046875 C 20.175781 -8.691406 19.328125 -9.269531 18.109375 -9.78125 L 14.0625 -11.515625 C 11.019531 -12.773438 8.898438 -14.300781 7.703125 -16.09375 C 6.503906 -17.882812 6.097656 -19.972656 6.484375 -22.359375 C 6.804688 -24.347656 7.59375 -25.988281 8.84375 -27.28125 C 10.101562 -28.582031 11.710938 -29.46875 13.671875 -29.9375 C 15.640625 -30.40625 17.847656 -30.441406 20.296875 -30.046875 C 23.179688 -29.578125 25.5 -28.769531 27.25 -27.625 C 29 -26.476562 30.285156 -25.128906 31.109375 -23.578125 L 26.078125 -19.65625 L 25.484375 -19.75 C 24.773438 -20.90625 23.898438 -21.804688 22.859375 -22.453125 C 21.828125 -23.097656 20.628906 -23.53125 19.265625 -23.75 C 16.109375 -24.269531 14.367188 -23.546875 14.046875 -21.578125 C 13.910156 -20.742188 14.09375 -20.019531 14.59375 -19.40625 C 15.09375 -18.789062 16.0625 -18.195312 17.5 -17.625 L 21.28125 -16.125 C 24.40625 -14.894531 26.585938 -13.390625 27.828125 -11.609375 C 29.078125 -9.835938 29.488281 -7.660156 29.0625 -5.078125 C 28.738281 -3.046875 27.945312 -1.34375 26.6875 0.03125 C 25.425781 1.414062 23.785156 2.367188 21.765625 2.890625 C 19.742188 3.410156 17.429688 3.460938 14.828125 3.046875 Z M 14.828125 3.046875 "/></g></g></g><g fill="#000000" fill-opacity="1"><g transform="translate(453.055174, 192.780547)"><g/></g></g><g fill="#000000" fill-opacity="1"><g transform="translate(465.382903, 195.895855)"><g><path d="M 12.8125 -12.484375 C 11.820312 -12.816406 11.019531 -13.304688 10.40625 -13.953125 C 9.789062 -14.597656 9.398438 -15.335938 9.234375 -16.171875 C 9.066406 -17.003906 9.128906 -17.863281 9.421875 -18.75 C 9.710938 -19.644531 10.175781 -20.378906 10.8125 -20.953125 C 11.445312 -21.535156 12.203125 -21.90625 13.078125 -22.0625 C 13.960938 -22.21875 14.898438 -22.128906 15.890625 -21.796875 C 16.890625 -21.472656 17.695312 -20.988281 18.3125 -20.34375 C 18.9375 -19.695312 19.332031 -18.957031 19.5 -18.125 C 19.675781 -17.289062 19.617188 -16.425781 19.328125 -15.53125 C 18.878906 -14.175781 18.054688 -13.207031 16.859375 -12.625 C 15.671875 -12.039062 14.320312 -11.992188 12.8125 -12.484375 Z M 12.8125 -12.484375 "/></g></g></g><g fill="#000000" fill-opacity="1"><g transform="translate(479.74087, 200.618969)"><g/></g></g><g fill="#000000" fill-opacity="1"><g transform="translate(491.02728, 204.474279)"><g><path d="M 48.890625 -22.671875 L 45.59375 -16.40625 L 29.0625 -25.109375 L 23.78125 -15.0625 L 38.796875 -7.15625 L 35.546875 -0.96875 L 20.53125 -8.875 L 12.421875 6.53125 L 4.921875 2.59375 L 24.859375 -35.3125 Z M 48.890625 -22.671875 "/></g></g></g><g fill="#000000" fill-opacity="1"><g transform="translate(518.920418, 218.751791)"><g><path d="M 11.5625 9.265625 C 8.632812 7.109375 7.054688 4.71875 6.828125 2.09375 C 6.609375 -0.519531 7.601562 -3.320312 9.8125 -6.3125 L 22.5 -23.546875 L 29.046875 -18.734375 L 16.953125 -2.3125 C 15.785156 -0.726562 15.273438 0.679688 15.421875 1.921875 C 15.566406 3.160156 16.351562 4.304688 17.78125 5.359375 C 19.59375 6.691406 21.4375 7.128906 23.3125 6.671875 C 25.195312 6.222656 27.078125 4.726562 28.953125 2.1875 L 38.96875 -11.421875 L 45.5 -6.609375 L 26.34375 19.40625 L 20.078125 14.78125 L 22.890625 10.953125 L 22.484375 10.484375 C 20.546875 11.359375 18.707031 11.71875 16.96875 11.5625 C 15.226562 11.40625 13.425781 10.640625 11.5625 9.265625 Z M 11.5625 9.265625 "/></g></g></g><g fill="#000000" fill-opacity="1"><g transform="translate(546.673796, 239.682072)"><g><path d="M 9.390625 9.609375 C 7.253906 7.609375 6.164062 5.515625 6.125 3.328125 C 6.082031 1.140625 7.148438 -1.117188 9.328125 -3.453125 L 34.171875 -30.046875 L 40.09375 -24.515625 L 15.484375 1.828125 C 14.128906 3.273438 14.054688 4.5625 15.265625 5.6875 C 15.609375 6.007812 16.023438 6.289062 16.515625 6.53125 L 16.734375 6.890625 L 13 11.953125 C 12.519531 11.816406 11.957031 11.539062 11.3125 11.125 C 10.675781 10.71875 10.035156 10.210938 9.390625 9.609375 Z M 9.390625 9.609375 "/></g></g></g><g fill="#000000" fill-opacity="1"><g transform="translate(559.022462, 251.13122)"><g><path d="M 8.609375 10.296875 C 6.640625 8.148438 5.71875 5.976562 5.84375 3.78125 C 5.976562 1.59375 7.222656 -0.578125 9.578125 -2.734375 L 36.421875 -27.3125 L 41.890625 -21.328125 L 15.296875 3.03125 C 13.835938 4.363281 13.664062 5.632812 14.78125 6.84375 C 15.09375 7.195312 15.488281 7.515625 15.96875 7.796875 L 16.15625 8.171875 L 12.046875 12.9375 C 11.566406 12.757812 11.023438 12.441406 10.421875 11.984375 C 9.816406 11.523438 9.210938 10.960938 8.609375 10.296875 Z M 8.609375 10.296875 "/></g></g></g><g fill="#000000" fill-opacity="1"><g transform="translate(570.395138, 263.27156)"><g><path d="M 26.15625 5.796875 L 15.21875 -8.46875 L 20.890625 -12.828125 L 31.828125 1.4375 Z M 26.15625 5.796875 "/></g></g></g><g fill="#000000" fill-opacity="1"><g transform="translate(583.272687, 279.070978)"><g><path d="M 9.0625 16.703125 C 7.5625 14.140625 6.539062 11.671875 6 9.296875 C 5.457031 6.929688 5.3125 4.78125 5.5625 2.84375 C 5.8125 0.90625 6.347656 -0.769531 7.171875 -2.1875 L 14.4375 -1.046875 L 14.796875 -0.40625 C 13.785156 1.664062 13.289062 3.84375 13.3125 6.125 C 13.34375 8.414062 14.03125 10.707031 15.375 13 C 16.519531 14.957031 17.796875 16.191406 19.203125 16.703125 C 20.609375 17.210938 22.035156 17.046875 23.484375 16.203125 C 24.367188 15.691406 25.007812 15.097656 25.40625 14.421875 C 25.8125 13.753906 26.007812 12.925781 26 11.9375 C 25.988281 10.957031 25.765625 9.742188 25.328125 8.296875 L 23.625 2.90625 C 22.445312 -0.851562 22.257812 -4.0625 23.0625 -6.71875 C 23.875 -9.375 25.6875 -11.523438 28.5 -13.171875 C 30.582031 -14.398438 32.722656 -14.953125 34.921875 -14.828125 C 37.128906 -14.710938 39.253906 -13.910156 41.296875 -12.421875 C 43.335938 -10.941406 45.171875 -8.8125 46.796875 -6.03125 C 48.460938 -3.1875 49.515625 -0.53125 49.953125 1.9375 C 50.398438 4.40625 50.253906 6.796875 49.515625 9.109375 L 42.453125 8.40625 L 42.078125 7.765625 C 42.566406 6.078125 42.691406 4.394531 42.453125 2.71875 C 42.210938 1.050781 41.582031 -0.648438 40.5625 -2.390625 C 39.394531 -4.398438 38.148438 -5.71875 36.828125 -6.34375 C 35.503906 -6.96875 34.21875 -6.914062 32.96875 -6.1875 C 31.8125 -5.5 31.097656 -4.585938 30.828125 -3.453125 C 30.566406 -2.316406 30.769531 -0.734375 31.4375 1.296875 L 33.265625 6.75 C 34.617188 10.769531 34.863281 14.117188 34 16.796875 C 33.132812 19.484375 31.238281 21.679688 28.3125 23.390625 C 26.007812 24.742188 23.710938 25.421875 21.421875 25.421875 C 19.128906 25.429688 16.921875 24.707031 14.796875 23.25 C 12.671875 21.789062 10.757812 19.609375 9.0625 16.703125 Z M 9.0625 16.703125 "/></g></g></g><g fill="#000000" fill-opacity="1"><g transform="translate(600.235541, 308.437389)"><g><path d="M 15.78125 17.53125 L 11.0625 21.828125 C 10.0625 21.296875 9.113281 20.492188 8.21875 19.421875 C 7.320312 18.359375 6.546875 17.050781 5.890625 15.5 C 4.535156 12.289062 4.378906 9.476562 5.421875 7.0625 C 6.460938 4.644531 8.660156 2.726562 12.015625 1.3125 L 26.15625 -4.671875 L 24.234375 -9.203125 L 30.171875 -11.703125 L 32.09375 -7.171875 L 37.890625 -9.625 L 42.265625 -2.671875 L 35.25 0.296875 L 38.828125 8.75 L 32.890625 11.25 L 29.3125 2.796875 L 15.71875 8.546875 C 14.238281 9.171875 13.289062 9.929688 12.875 10.828125 C 12.457031 11.734375 12.492188 12.769531 12.984375 13.9375 C 13.546875 15.269531 14.398438 16.28125 15.546875 16.96875 Z M 15.78125 17.53125 "/></g></g></g><g fill="#000000" fill-opacity="1"><g transform="translate(609.366337, 328.883742)"><g><path d="M 2.84375 12.28125 C 2.28125 10.300781 2.15625 8.472656 2.46875 6.796875 C 2.789062 5.117188 3.546875 3.6875 4.734375 2.5 C 5.929688 1.3125 7.53125 0.429688 9.53125 -0.140625 C 11.375 -0.660156 13.03125 -0.703125 14.5 -0.265625 C 15.96875 0.160156 17.332031 1.085938 18.59375 2.515625 C 19.863281 3.953125 21.097656 5.9375 22.296875 8.46875 C 23.109375 10.25 23.832031 11.570312 24.46875 12.4375 C 25.113281 13.300781 25.707031 13.835938 26.25 14.046875 C 26.800781 14.265625 27.425781 14.273438 28.125 14.078125 C 29.113281 13.796875 29.769531 13.234375 30.09375 12.390625 C 30.425781 11.546875 30.363281 10.316406 29.90625 8.703125 C 29.414062 6.960938 28.566406 5.421875 27.359375 4.078125 C 26.148438 2.742188 24.742188 1.679688 23.140625 0.890625 L 22.984375 0.328125 L 27 -4.34375 C 29.195312 -3.257812 31.109375 -1.71875 32.734375 0.28125 C 34.359375 2.28125 35.550781 4.625 36.3125 7.3125 C 37.476562 11.414062 37.445312 14.632812 36.21875 16.96875 C 34.988281 19.3125 32.765625 20.9375 29.546875 21.84375 L 16.046875 25.6875 C 14.660156 26.082031 14.144531 26.894531 14.5 28.125 C 14.625 28.59375 14.835938 29.023438 15.140625 29.421875 L 15.140625 29.84375 L 9.859375 31.953125 C 9.453125 31.585938 9.050781 31.046875 8.65625 30.328125 C 8.257812 29.617188 7.929688 28.804688 7.671875 27.890625 C 7.140625 26.023438 7.082031 24.46875 7.5 23.21875 C 7.925781 21.976562 8.828125 20.914062 10.203125 20.03125 L 10.109375 19.4375 C 6.441406 18.832031 4.019531 16.445312 2.84375 12.28125 Z M 9.390625 13.109375 C 9.898438 14.910156 10.914062 16.179688 12.4375 16.921875 C 13.957031 17.660156 15.789062 17.722656 17.9375 17.109375 L 21.09375 16.21875 L 21.0625 15.625 C 20.550781 15.269531 20.0625 14.75 19.59375 14.0625 C 19.125 13.382812 18.5625 12.359375 17.90625 10.984375 C 17.144531 9.378906 16.316406 8.300781 15.421875 7.75 C 14.535156 7.195312 13.460938 7.097656 12.203125 7.453125 C 10.867188 7.835938 9.96875 8.523438 9.5 9.515625 C 9.03125 10.503906 8.992188 11.703125 9.390625 13.109375 Z M 9.390625 13.109375 "/></g></g></g><g fill="#000000" fill-opacity="1"><g transform="translate(618.004807, 358.624833)"><g><path d="M 1.9375 18.75 C 1.519531 15.65625 1.789062 12.828125 2.75 10.265625 C 3.707031 7.710938 5.34375 5.597656 7.65625 3.921875 C 9.976562 2.242188 12.882812 1.164062 16.375 0.6875 C 19.894531 0.207031 22.992188 0.460938 25.671875 1.453125 C 28.359375 2.453125 30.507812 4.046875 32.125 6.234375 C 33.738281 8.421875 34.753906 11.03125 35.171875 14.0625 C 36.085938 20.820312 34.222656 25.476562 29.578125 28.03125 L 24.875 23.078125 L 24.796875 22.46875 C 26.210938 21.601562 27.21875 20.585938 27.8125 19.421875 C 28.40625 18.265625 28.582031 16.785156 28.34375 14.984375 C 28.019531 12.660156 26.96875 10.960938 25.1875 9.890625 C 23.40625 8.816406 20.84375 8.503906 17.5 8.953125 C 14.207031 9.398438 11.84375 10.394531 10.40625 11.9375 C 8.976562 13.476562 8.425781 15.441406 8.75 17.828125 C 8.988281 19.554688 9.660156 20.960938 10.765625 22.046875 C 11.878906 23.128906 13.347656 23.8125 15.171875 24.09375 L 15.328125 24.6875 L 12.96875 30.84375 C 10.144531 30.394531 7.726562 29.191406 5.71875 27.234375 C 3.707031 25.273438 2.445312 22.445312 1.9375 18.75 Z M 1.9375 18.75 "/></g></g></g><g fill="#000000" fill-opacity="1"><g transform="translate(622.279075, 388.602299)"><g><path d="M 0 4.65625 L 45.296875 4.734375 L 45.28125 12.859375 L 20.140625 12.8125 L 20.140625 13.59375 L 32.28125 22.953125 L 32.265625 31.1875 L 31.59375 31.1875 L 17.4375 20.1875 L 0.6875 32.375 L -0.046875 32.375 L -0.03125 23.8125 L 13.609375 13.578125 L 13.609375 12.796875 L -0.015625 12.78125 Z M 0 4.65625 "/></g></g></g><g fill="#000000" fill-opacity="1"><g transform="translate(622.112043, 418.444618)"><g><path d="M 14.703125 22.390625 L 16.8125 4.546875 L 23.90625 5.390625 L 21.796875 23.234375 Z M 14.703125 22.390625 "/></g></g></g><g fill="#000000" fill-opacity="1"><g transform="translate(620.799329, 438.434723)"><g><path d="M 35.953125 31.34375 C 34.148438 38.0625 31.039062 42.722656 26.625 45.328125 C 22.207031 47.929688 16.578125 48.316406 9.734375 46.484375 C 2.898438 44.660156 -1.78125 41.515625 -4.3125 37.046875 C -6.851562 32.578125 -7.222656 26.984375 -5.421875 20.265625 L -1.4375 5.375 L 39.9375 16.453125 Z M 1.578125 21.625 C 0.441406 25.882812 0.679688 29.363281 2.296875 32.0625 C 3.910156 34.757812 7.140625 36.753906 11.984375 38.046875 C 16.835938 39.347656 20.632812 39.234375 23.375 37.703125 C 26.125 36.171875 28.066406 33.273438 29.203125 29.015625 L 30.875 22.78125 L 3.25 15.390625 Z M 1.578125 21.625 "/></g></g></g><g fill="#000000" fill-opacity="1"><g transform="translate(609.792553, 479.033645)"><g><path d="M -0.3125 35 L 8.359375 16.125 C 5.703125 15.164062 3.503906 15.035156 1.765625 15.734375 C 0.0351562 16.441406 -1.320312 17.867188 -2.3125 20.015625 C -3.082031 21.703125 -3.394531 23.21875 -3.25 24.5625 C -3.101562 25.90625 -2.535156 27.179688 -1.546875 28.390625 L -1.796875 28.96875 L -7.1875 32.421875 C -8.800781 30.515625 -9.800781 28.300781 -10.1875 25.78125 C -10.570312 23.269531 -10.023438 20.394531 -8.546875 17.15625 C -7.148438 14.125 -5.367188 11.765625 -3.203125 10.078125 C -1.046875 8.398438 1.441406 7.484375 4.265625 7.328125 C 7.097656 7.179688 10.160156 7.863281 13.453125 9.375 C 16.796875 10.90625 19.316406 12.828125 21.015625 15.140625 C 22.722656 17.453125 23.648438 19.941406 23.796875 22.609375 C 23.953125 25.273438 23.414062 27.945312 22.1875 30.625 C 20.28125 34.78125 17.71875 37.457031 14.5 38.65625 C 11.28125 39.851562 7.539062 39.472656 3.28125 37.515625 C 1.726562 36.796875 0.550781 36.191406 -0.25 35.703125 Z M 7.375 30.859375 C 9.632812 31.804688 11.492188 32.03125 12.953125 31.53125 C 14.421875 31.039062 15.582031 29.859375 16.4375 27.984375 C 18.144531 24.253906 17.019531 21.085938 13.0625 18.484375 Z M 7.375 30.859375 "/></g></g></g><g fill="#000000" fill-opacity="1"><g transform="translate(596.668811, 508.131629)"><g><path d="M -12.125 18.640625 L -6.84375 10.53125 L 26.765625 18.125 L 22.125 25.25 L -1.5625 19.4375 L -1.921875 20 L 12.984375 39.296875 L 8.46875 46.25 Z M -12.125 18.640625 "/></g></g></g><g fill="#000000" fill-opacity="1"><g transform="translate(579.692057, 534.70503)"><g><path d="M -10.359375 33.421875 L 3.375 17.84375 C 1.101562 16.164062 -0.960938 15.410156 -2.828125 15.578125 C -4.691406 15.753906 -6.40625 16.734375 -7.96875 18.515625 C -9.1875 19.898438 -9.914062 21.253906 -10.15625 22.578125 C -10.40625 23.910156 -10.234375 25.300781 -9.640625 26.75 L -10.0625 27.21875 L -16.21875 28.984375 C -17.21875 26.691406 -17.539062 24.28125 -17.1875 21.75 C -16.832031 19.226562 -15.476562 16.632812 -13.125 13.96875 C -10.914062 11.46875 -8.53125 9.722656 -5.96875 8.734375 C -3.414062 7.742188 -0.765625 7.585938 1.984375 8.265625 C 4.742188 8.941406 7.476562 10.472656 10.1875 12.859375 C 12.945312 15.285156 14.8125 17.847656 15.78125 20.546875 C 16.75 23.253906 16.914062 25.90625 16.28125 28.5 C 15.65625 31.101562 14.367188 33.507812 12.421875 35.71875 C 9.398438 39.144531 6.175781 40.96875 2.75 41.1875 C -0.664062 41.40625 -4.132812 39.96875 -7.65625 36.875 C -8.9375 35.738281 -9.890625 34.820312 -10.515625 34.125 Z M -1.828125 31.671875 C 0.078125 33.242188 1.800781 34 3.34375 33.9375 C 4.882812 33.882812 6.332031 33.085938 7.6875 31.546875 C 10.394531 28.460938 10.226562 25.097656 7.1875 21.453125 Z M -1.828125 31.671875 "/></g></g></g><g fill="#000000" fill-opacity="1"><g transform="translate(557.882362, 558.958114)"><g><path d="M -10.359375 8.5625 C -8.191406 6.601562 -6.007812 5.691406 -3.8125 5.828125 C -1.625 5.960938 0.539062 7.210938 2.6875 9.578125 L 27.125 36.546875 L 21.109375 42 L -3.109375 15.28125 C -4.441406 13.8125 -5.71875 13.628906 -6.9375 14.734375 C -7.28125 15.046875 -7.597656 15.4375 -7.890625 15.90625 L -8.25 16.109375 L -13 11.96875 C -12.820312 11.5 -12.5 10.960938 -12.03125 10.359375 C -11.570312 9.765625 -11.015625 9.164062 -10.359375 8.5625 Z M -10.359375 8.5625 "/></g></g></g><g fill="#000000" fill-opacity="1"><g transform="translate(546.496184, 570.23096)"><g><path d="M -15.65625 10.390625 C -13.070312 8.554688 -10.429688 7.472656 -7.734375 7.140625 C -5.035156 6.816406 -2.421875 7.296875 0.109375 8.578125 C 2.640625 9.859375 4.9375 11.941406 7 14.828125 C 9.0625 17.722656 10.285156 20.578125 10.671875 23.390625 C 11.054688 26.210938 10.65625 28.847656 9.46875 31.296875 C 8.28125 33.742188 6.394531 35.882812 3.8125 37.71875 C 1.226562 39.5625 -1.410156 40.644531 -4.109375 40.96875 C -6.804688 41.289062 -9.425781 40.8125 -11.96875 39.53125 C -14.519531 38.25 -16.828125 36.160156 -18.890625 33.265625 C -20.953125 30.378906 -22.164062 27.523438 -22.53125 24.703125 C -22.90625 21.890625 -22.5 19.257812 -21.3125 16.8125 C -20.125 14.375 -18.238281 12.234375 -15.65625 10.390625 Z M -11.65625 16 C -15.75 18.914062 -15.890625 23.050781 -12.078125 28.40625 C -10.085938 31.1875 -8.101562 32.851562 -6.125 33.40625 C -4.15625 33.957031 -2.175781 33.523438 -0.1875 32.109375 C 3.90625 29.203125 4.035156 25.054688 0.203125 19.671875 C -3.609375 14.316406 -7.5625 13.09375 -11.65625 16 Z M -11.65625 16 "/></g></g></g><g fill="#000000" fill-opacity="1"><g transform="translate(518.937242, 590.262846)"><g><path d="M -9.984375 -9.671875 L 10.15625 31.015625 L 2.875 34.625 L 1.015625 30.84375 L 0.421875 31.015625 C 0.285156 32.910156 -0.3125 34.582031 -1.375 36.03125 C -2.445312 37.488281 -3.945312 38.695312 -5.875 39.65625 C -8.195312 40.8125 -10.503906 41.265625 -12.796875 41.015625 C -15.085938 40.773438 -17.273438 39.769531 -19.359375 38 C -21.441406 36.226562 -23.304688 33.679688 -24.953125 30.359375 C -26.585938 27.054688 -27.445312 24.03125 -27.53125 21.28125 C -27.625 18.53125 -27.03125 16.148438 -25.75 14.140625 C -24.476562 12.128906 -22.65625 10.535156 -20.28125 9.359375 C -18.476562 8.460938 -16.769531 7.988281 -15.15625 7.9375 C -13.539062 7.894531 -11.960938 8.285156 -10.421875 9.109375 L -9.9375 8.734375 L -17.265625 -6.0625 Z M -15.203125 14.515625 C -17.378906 15.585938 -18.675781 17.113281 -19.09375 19.09375 C -19.507812 21.070312 -18.960938 23.59375 -17.453125 26.65625 C -15.929688 29.71875 -14.253906 31.679688 -12.421875 32.546875 C -10.597656 33.421875 -8.597656 33.320312 -6.421875 32.25 C -4.390625 31.238281 -3.144531 29.703125 -2.6875 27.640625 C -2.226562 25.585938 -2.738281 23.070312 -4.21875 20.09375 C -5.675781 17.132812 -7.363281 15.210938 -9.28125 14.328125 C -11.195312 13.441406 -13.171875 13.503906 -15.203125 14.515625 Z M -15.203125 14.515625 "/></g></g></g><g fill="#000000" fill-opacity="1"><g transform="translate(487.350116, 606.039345)"><g><path d="M -26.140625 23.28125 L -6.328125 17.03125 C -7.398438 14.414062 -8.78125 12.695312 -10.46875 11.875 C -12.15625 11.0625 -14.125 11.015625 -16.375 11.734375 C -18.144531 12.285156 -19.476562 13.066406 -20.375 14.078125 C -21.269531 15.085938 -21.84375 16.367188 -22.09375 17.921875 L -22.6875 18.109375 L -28.859375 16.4375 C -28.523438 13.957031 -27.554688 11.726562 -25.953125 9.75 C -24.347656 7.78125 -21.847656 6.257812 -18.453125 5.1875 C -15.273438 4.175781 -12.335938 3.910156 -9.640625 4.390625 C -6.941406 4.867188 -4.582031 6.101562 -2.5625 8.09375 C -0.550781 10.09375 1 12.816406 2.09375 16.265625 C 3.195312 19.773438 3.460938 22.9375 2.890625 25.75 C 2.328125 28.5625 1.109375 30.914062 -0.765625 32.8125 C -2.648438 34.707031 -5 36.101562 -7.8125 37 C -12.175781 38.375 -15.878906 38.269531 -18.921875 36.6875 C -21.960938 35.113281 -24.1875 32.09375 -25.59375 27.625 C -26.113281 25.988281 -26.460938 24.707031 -26.640625 23.78125 Z M -17.921875 26.1875 C -17.097656 28.5 -16.015625 30.03125 -14.671875 30.78125 C -13.328125 31.53125 -11.675781 31.597656 -9.71875 30.984375 C -5.800781 29.742188 -4.203125 26.773438 -4.921875 22.078125 Z M -17.921875 26.1875 "/></g></g></g><g fill="#000000" fill-opacity="1"><g transform="translate(456.493292, 615.632748)"><g><path d="M -4.578125 0.828125 L 1.1875 32.625 L -6.578125 34.03125 L -7.4375 29.3125 L -8.078125 29.296875 C -8.515625 31.203125 -9.28125 32.679688 -10.375 33.734375 C -11.476562 34.796875 -12.925781 35.488281 -14.71875 35.8125 C -16.519531 36.132812 -17.945312 36.078125 -19 35.640625 L -18.90625 28.5 L -18.3125 28.265625 C -17.75 28.378906 -17.21875 28.441406 -16.71875 28.453125 C -16.226562 28.460938 -15.640625 28.40625 -14.953125 28.28125 C -12.710938 27.875 -11.148438 26.78125 -10.265625 25 C -9.378906 23.226562 -9.25 20.613281 -9.875 17.15625 L -12.578125 2.28125 Z M -4.578125 0.828125 "/></g></g></g><g fill="#000000" fill-opacity="1"><g transform="translate(433.352254, 619.667462)"><g/></g></g><g fill="#000000" fill-opacity="1"><g transform="translate(420.70485, 620.979465)"><g><path d="M -7.75 16.125 C -6.707031 16.09375 -5.785156 16.273438 -4.984375 16.671875 C -4.179688 17.066406 -3.554688 17.625 -3.109375 18.34375 C -2.671875 19.070312 -2.4375 19.90625 -2.40625 20.84375 C -2.375 21.78125 -2.554688 22.628906 -2.953125 23.390625 C -3.347656 24.148438 -3.929688 24.753906 -4.703125 25.203125 C -5.472656 25.660156 -6.378906 25.90625 -7.421875 25.9375 C -8.472656 25.976562 -9.398438 25.800781 -10.203125 25.40625 C -11.015625 25.007812 -11.644531 24.445312 -12.09375 23.71875 C -12.539062 22.988281 -12.78125 22.15625 -12.8125 21.21875 C -12.851562 19.789062 -12.414062 18.597656 -11.5 17.640625 C -10.582031 16.679688 -9.332031 16.175781 -7.75 16.125 Z M -7.75 16.125 "/></g></g></g></svg>